# xmcd
#
# Track frame offsets: 
#        150
#        24040
#        44935
#        61788
#        80198
#        92018
#        121108
#        139910
#        157518
#        174415
#        184248
#        201098
#
# Disc length: 3002 seconds
#
# Revision: 6
# Processed by: cddbd v1.5.2PL0 Copyright (c) Steve Scherf et al.
# Submitted via: ExactAudioCopy v0.99pb4
#
DISCID=970bb80c
DTITLE=Chris Rea - Tennis
DYEAR=1980
DGENRE=Rock
TTITLE0=Tennis
TTITLE1=Sweet Kiss
TTITLE2=Since I Don't See You Anymore
TTITLE3=Dancing Girls
TTITLE4=No Work Today
TTITLE5=Every Time I See You Smile
TTITLE6=For Ever and Ever
TTITLE7=Good News
TTITLE8=Friends Across the Water
TTITLE9=Distant Summers
TTITLE10=Only With You
TTITLE11=Stick It
EXTD=
EXTT0=
EXTT1=
EXTT2=
EXTT3=
EXTT4=
EXTT5=
EXTT6=
EXTT7=
EXTT8=
EXTT9=
EXTT10=
EXTT11=
PLAYORDER=
